<svg width="24" height="24" viewBox="0 0 24 24" fill="none" xmlns="http://www.w3.org/2000/svg">
<path fill-rule="evenodd" clip-rule="evenodd" d="M21.2932 17.7072L12.0002 8.41425L2.70725 17.7072C2.31725 18.0982 1.68325 18.0982 1.29325 17.7072C0.90225 17.3172 0.90225 16.6833 1.29325 16.2933L11.2933 6.29325C11.6833 5.90225 12.3172 5.90225 12.7072 6.29325L22.7073 16.2933C23.0983 16.6833 23.0983 17.3172 22.7073 17.7072C22.3173 18.0982 21.6832 18.0982 21.2932 17.7072Z" fill="black"/>
<mask id="mask0_1152:1175" style="mask-type:alpha" maskUnits="userSpaceOnUse" x="1" y="6" width="23" height="13">
<path fill-rule="evenodd" clip-rule="evenodd" d="M21.2932 17.7072L12.0002 8.41425L2.70725 17.7072C2.31725 18.0982 1.68325 18.0982 1.29325 17.7072C0.90225 17.3172 0.90225 16.6833 1.29325 16.2933L11.2933 6.29325C11.6833 5.90225 12.3172 5.90225 12.7072 6.29325L22.7073 16.2933C23.0983 16.6833 23.0983 17.3172 22.7073 17.7072C22.3173 18.0982 21.6832 18.0982 21.2932 17.7072Z" fill="white"/>
</mask>
<g mask="url(#mask0_1152:1175)">
</g>
</svg>
